# xmcd
#
# Track frame offsets: 
#        182
#        13030
#        25140
#        36460
#        47442
#        57697
#        68492
#        80810
#        95830
#        109550
#        120942
#        132222
#        145452
#        156120
#        165005
#        175242
#        189662
#        203605
#        218495
#        232857
#
# Disc length: 3303 seconds
#
# Revision: 0
# Processed by: cddbd v1.5.2PL0 Copyright (c) Steve Scherf et al.
# Submitted via: ExactAudioCopyFreeDBPlugin 1.0
#
DISCID=070ce514
DTITLE=Various Artist - The Sound Of Funk (Vol. 9)
DYEAR=2001
DGENRE=Funk
TTITLE0=Apples and The Three Oranges - Free and Easy
TTITLE1=Zeke and The Soul Setters - Take It And Get
TTITLE2=Jimmy Brinson - I Don't Want To Hear It Now
TTITLE3=Guy Morris - Cool It
TTITLE4=The Thrillers - Do The Train
TTITLE5=Bare Faxx - Number One Prize
TTITLE6=Brother Soul - Cookies
TTITLE7=Apollis - What Is This
TTITLE8=Tony La Mar and The Experience Unlimited Band - Funky Wah Wah
TTITLE9=Johnny Holiday - Tormented
TTITLE10=Gene Williams - Whatever You Do, Do It Good
TTITLE11=Joe Wallis - Sound Success
TTITLE12=Marvin Holmes and The Uptights - The Funky Mule (Part 1)
TTITLE13=Bobby Barnes - Times Are Bad
TTITLE14=Willie Smith - I Got A New Thing
TTITLE15=The Village Crusaders - Akiwawa
TTITLE16=Eastwind - Nabbit Juice (Part 1)
TTITLE17=Belva and The Randolph Bros - Happy Fool
TTITLE18=Henry Moore with Larry Johnson and The GTO's - Sock It To Me
TTITLE19=Brother Soul - Do It Good
EXTD=
EXTT0=
EXTT1=
EXTT2=
EXTT3=
EXTT4=
EXTT5=
EXTT6=
EXTT7=
EXTT8=
EXTT9=
EXTT10=
EXTT11=
EXTT12=
EXTT13=
EXTT14=
EXTT15=
EXTT16=
EXTT17=
EXTT18=
EXTT19=
PLAYORDER=
